<svg width="124" height="28" viewBox="0 0 124 28" fill="none" xmlns="http://www.w3.org/2000/svg">
<path d="M8.60156 19.457V13.4102C8.60156 12.957 8.51953 12.5664 8.35547 12.2383C8.19141 11.9102 7.94141 11.6562 7.60547 11.4766C7.27734 11.2969 6.86328 11.207 6.36328 11.207C5.90234 11.207 5.50391 11.2852 5.16797 11.4414C4.83203 11.5977 4.57031 11.8086 4.38281 12.0742C4.19531 12.3398 4.10156 12.6406 4.10156 12.9766H1.28906C1.28906 12.4766 1.41016 11.9922 1.65234 11.5234C1.89453 11.0547 2.24609 10.6367 2.70703 10.2695C3.16797 9.90234 3.71875 9.61328 4.35938 9.40234C5 9.19141 5.71875 9.08594 6.51562 9.08594C7.46875 9.08594 8.3125 9.24609 9.04688 9.56641C9.78906 9.88672 10.3711 10.3711 10.793 11.0195C11.2227 11.6602 11.4375 12.4648 11.4375 13.4336V19.0703C11.4375 19.6484 11.4766 20.168 11.5547 20.6289C11.6406 21.082 11.7617 21.4766 11.918 21.8125V22H9.02344C8.89062 21.6953 8.78516 21.3086 8.70703 20.8398C8.63672 20.3633 8.60156 19.9023 8.60156 19.457ZM9.01172 14.2891L9.03516 16.0352H7.00781C6.48438 16.0352 6.02344 16.0859 5.625 16.1875C5.22656 16.2812 4.89453 16.4219 4.62891 16.6094C4.36328 16.7969 4.16406 17.0234 4.03125 17.2891C3.89844 17.5547 3.83203 17.8555 3.83203 18.1914C3.83203 18.5273 3.91016 18.8359 4.06641 19.1172C4.22266 19.3906 4.44922 19.6055 4.74609 19.7617C5.05078 19.918 5.41797 19.9961 5.84766 19.9961C6.42578 19.9961 6.92969 19.8789 7.35938 19.6445C7.79688 19.4023 8.14062 19.1094 8.39062 18.7656C8.64062 18.4141 8.77344 18.082 8.78906 17.7695L9.70312 19.0234C9.60938 19.3438 9.44922 19.6875 9.22266 20.0547C8.99609 20.4219 8.69922 20.7734 8.33203 21.1094C7.97266 21.4375 7.53906 21.707 7.03125 21.918C6.53125 22.1289 5.95312 22.2344 5.29688 22.2344C4.46875 22.2344 3.73047 22.0703 3.08203 21.7422C2.43359 21.4062 1.92578 20.957 1.55859 20.3945C1.19141 19.8242 1.00781 19.1797 1.00781 18.4609C1.00781 17.7891 1.13281 17.1953 1.38281 16.6797C1.64062 16.1562 2.01562 15.7188 2.50781 15.3672C3.00781 15.0156 3.61719 14.75 4.33594 14.5703C5.05469 14.3828 5.875 14.2891 6.79688 14.2891H9.01172ZM22.4995 19.0117V9.32031H25.3355V22H22.6636L22.4995 19.0117ZM22.898 16.375L23.8472 16.3516C23.8472 17.2031 23.7534 17.9883 23.5659 18.707C23.3784 19.418 23.0894 20.0391 22.6987 20.5703C22.3081 21.0938 21.8081 21.5039 21.1987 21.8008C20.5894 22.0898 19.8589 22.2344 19.0073 22.2344C18.3902 22.2344 17.8237 22.1445 17.3081 21.9648C16.7925 21.7852 16.3472 21.5078 15.9722 21.1328C15.605 20.7578 15.3198 20.2695 15.1167 19.668C14.9136 19.0664 14.812 18.3477 14.812 17.5117V9.32031H17.6362V17.5352C17.6362 17.9961 17.6909 18.3828 17.8003 18.6953C17.9097 19 18.0581 19.2461 18.2456 19.4336C18.4331 19.6211 18.6519 19.7539 18.9019 19.832C19.1519 19.9102 19.4175 19.9492 19.6987 19.9492C20.5034 19.9492 21.1362 19.793 21.5972 19.4805C22.0659 19.1602 22.398 18.7305 22.5933 18.1914C22.7964 17.6523 22.898 17.0469 22.898 16.375ZM33.8897 19.9844C34.3506 19.9844 34.7647 19.8945 35.1319 19.7148C35.5069 19.5273 35.8077 19.2695 36.0342 18.9414C36.2686 18.6133 36.3975 18.2344 36.4209 17.8047H39.0811C39.0655 18.625 38.8233 19.3711 38.3545 20.043C37.8858 20.7148 37.2647 21.25 36.4912 21.6484C35.7178 22.0391 34.8623 22.2344 33.9248 22.2344C32.9561 22.2344 32.1123 22.0703 31.3936 21.7422C30.6748 21.4062 30.0772 20.9453 29.6006 20.3594C29.1241 19.7734 28.7647 19.0977 28.5225 18.332C28.2881 17.5664 28.1709 16.7461 28.1709 15.8711V15.4609C28.1709 14.5859 28.2881 13.7656 28.5225 13C28.7647 12.2266 29.1241 11.5469 29.6006 10.9609C30.0772 10.375 30.6748 9.91797 31.3936 9.58984C32.1123 9.25391 32.9522 9.08594 33.9131 9.08594C34.9287 9.08594 35.8194 9.28906 36.585 9.69531C37.3506 10.0938 37.9522 10.6523 38.3897 11.3711C38.835 12.082 39.0655 12.9102 39.0811 13.8555H36.4209C36.3975 13.3867 36.2803 12.9648 36.0694 12.5898C35.8662 12.207 35.5772 11.9023 35.2022 11.6758C34.835 11.4492 34.3936 11.3359 33.878 11.3359C33.3077 11.3359 32.835 11.4531 32.46 11.6875C32.085 11.9141 31.792 12.2266 31.5811 12.625C31.3702 13.0156 31.2178 13.457 31.1241 13.9492C31.0381 14.4336 30.9952 14.9375 30.9952 15.4609V15.8711C30.9952 16.3945 31.0381 16.9023 31.1241 17.3945C31.21 17.8867 31.3584 18.3281 31.5694 18.7188C31.7881 19.1016 32.085 19.4102 32.46 19.6445C32.835 19.8711 33.3116 19.9844 33.8897 19.9844ZM47.5416 9.32031V11.3828H40.3931V9.32031H47.5416ZM42.4556 6.21484H45.2798V18.4961C45.2798 18.8867 45.3345 19.1875 45.4439 19.3984C45.5611 19.6016 45.7212 19.7383 45.9244 19.8086C46.1275 19.8789 46.3658 19.9141 46.6392 19.9141C46.8345 19.9141 47.022 19.9023 47.2017 19.8789C47.3814 19.8555 47.5259 19.832 47.6353 19.8086L47.647 21.9648C47.4127 22.0352 47.1392 22.0977 46.8267 22.1523C46.522 22.207 46.1705 22.2344 45.772 22.2344C45.1236 22.2344 44.5494 22.1211 44.0494 21.8945C43.5494 21.6602 43.1587 21.2812 42.8775 20.7578C42.5962 20.2344 42.4556 19.5391 42.4556 18.6719V6.21484ZM53.2247 9.32031V22H50.3887V9.32031H53.2247ZM50.2012 5.99219C50.2012 5.5625 50.3419 5.20703 50.6231 4.92578C50.9122 4.63672 51.3106 4.49219 51.8184 4.49219C52.3184 4.49219 52.713 4.63672 53.002 4.92578C53.2911 5.20703 53.4356 5.5625 53.4356 5.99219C53.4356 6.41406 53.2911 6.76562 53.002 7.04688C52.713 7.32812 52.3184 7.46875 51.8184 7.46875C51.3106 7.46875 50.9122 7.32812 50.6231 7.04688C50.3419 6.76562 50.2012 6.41406 50.2012 5.99219ZM56.2594 15.8008V15.5312C56.2594 14.6172 56.3922 13.7695 56.6578 12.9883C56.9234 12.1992 57.3063 11.5156 57.8063 10.9375C58.3141 10.3516 58.9313 9.89844 59.6578 9.57812C60.3922 9.25 61.2203 9.08594 62.1422 9.08594C63.0719 9.08594 63.9 9.25 64.6266 9.57812C65.3609 9.89844 65.982 10.3516 66.4898 10.9375C66.9977 11.5156 67.3844 12.1992 67.65 12.9883C67.9156 13.7695 68.0484 14.6172 68.0484 15.5312V15.8008C68.0484 16.7148 67.9156 17.5625 67.65 18.3438C67.3844 19.125 66.9977 19.8086 66.4898 20.3945C65.982 20.9727 65.3648 21.4258 64.6383 21.7539C63.9117 22.0742 63.0875 22.2344 62.1656 22.2344C61.2359 22.2344 60.4039 22.0742 59.6695 21.7539C58.943 21.4258 58.3258 20.9727 57.818 20.3945C57.3102 19.8086 56.9234 19.125 56.6578 18.3438C56.3922 17.5625 56.2594 16.7148 56.2594 15.8008ZM59.0836 15.5312V15.8008C59.0836 16.3711 59.1422 16.9102 59.2594 17.418C59.3766 17.9258 59.5602 18.3711 59.8102 18.7539C60.0602 19.1367 60.3805 19.4375 60.7711 19.6562C61.1617 19.875 61.6266 19.9844 62.1656 19.9844C62.6891 19.9844 63.1422 19.875 63.525 19.6562C63.9156 19.4375 64.2359 19.1367 64.4859 18.7539C64.7359 18.3711 64.9195 17.9258 65.0367 17.418C65.1617 16.9102 65.2242 16.3711 65.2242 15.8008V15.5312C65.2242 14.9688 65.1617 14.4375 65.0367 13.9375C64.9195 13.4297 64.732 12.9805 64.4742 12.5898C64.2242 12.1992 63.9039 11.8945 63.5133 11.6758C63.1305 11.4492 62.6734 11.3359 62.1422 11.3359C61.6109 11.3359 61.15 11.4492 60.7594 11.6758C60.3766 11.8945 60.0602 12.1992 59.8102 12.5898C59.5602 12.9805 59.3766 13.4297 59.2594 13.9375C59.1422 14.4375 59.0836 14.9688 59.0836 15.5312ZM73.6964 12.0273V22H70.8722V9.32031H73.5323L73.6964 12.0273ZM73.1925 15.1914L72.2784 15.1797C72.2862 14.2812 72.4112 13.457 72.6534 12.707C72.9034 11.957 73.2472 11.3125 73.6847 10.7734C74.13 10.2344 74.6612 9.82031 75.2784 9.53125C75.8956 9.23438 76.5831 9.08594 77.3409 9.08594C77.9503 9.08594 78.5011 9.17188 78.9933 9.34375C79.4933 9.50781 79.9191 9.77734 80.2706 10.1523C80.63 10.5273 80.9034 11.0156 81.0909 11.6172C81.2784 12.2109 81.3722 12.9414 81.3722 13.8086V22H78.5362V13.7969C78.5362 13.1875 78.4464 12.707 78.2667 12.3555C78.0948 11.9961 77.8409 11.7422 77.505 11.5938C77.1769 11.4375 76.7667 11.3594 76.2745 11.3594C75.7902 11.3594 75.3566 11.4609 74.9737 11.6641C74.5909 11.8672 74.2667 12.1445 74.0011 12.4961C73.7433 12.8477 73.5441 13.2539 73.4034 13.7148C73.2628 14.1758 73.1925 14.668 73.1925 15.1914Z" fill="#212427"/>
<path d="M92.8086 19.668V13.1172C92.8086 12.4531 92.668 11.8828 92.3867 11.4062C92.1055 10.9297 91.6953 10.5664 91.1562 10.3164C90.6172 10.0586 89.957 9.92969 89.1758 9.92969C88.4492 9.92969 87.7969 10.0586 87.2188 10.3164C86.6484 10.5664 86.1992 10.9102 85.8711 11.3477C85.543 11.7852 85.3789 12.2734 85.3789 12.8125L84.4414 12.8008C84.4414 12.3164 84.5547 11.8516 84.7812 11.4062C85.0156 10.9609 85.3438 10.5664 85.7656 10.2227C86.1953 9.87109 86.6992 9.59375 87.2773 9.39062C87.8633 9.1875 88.5039 9.08594 89.1992 9.08594C90.0898 9.08594 90.875 9.23828 91.5547 9.54297C92.2422 9.83984 92.7773 10.2891 93.1602 10.8906C93.543 11.4922 93.7344 12.2422 93.7344 13.1406V19.3984C93.7344 19.8516 93.7656 20.3086 93.8281 20.7695C93.8906 21.2305 93.9766 21.6016 94.0859 21.8828V22H93.0664C92.9805 21.7031 92.9141 21.3398 92.8672 20.9102C92.8281 20.4805 92.8086 20.0664 92.8086 19.668ZM93.1133 14.8047L93.1367 15.6133H90.043C89.2617 15.6133 88.5625 15.6875 87.9453 15.8359C87.3281 15.9844 86.8047 16.1953 86.375 16.4688C85.9453 16.7422 85.6172 17.0664 85.3906 17.4414C85.1641 17.8164 85.0508 18.2383 85.0508 18.707C85.0508 19.1914 85.1797 19.6367 85.4375 20.043C85.6953 20.4492 86.0586 20.7734 86.5273 21.0156C86.9961 21.25 87.5391 21.3672 88.1562 21.3672C89 21.3672 89.7461 21.2227 90.3945 20.9336C91.0508 20.6367 91.6016 20.2383 92.0469 19.7383C92.4922 19.2305 92.8164 18.6445 93.0195 17.9805L93.4297 18.6602C93.2969 19.0742 93.0898 19.4922 92.8086 19.9141C92.5273 20.3359 92.1641 20.7227 91.7188 21.0742C91.2734 21.418 90.75 21.6992 90.1484 21.918C89.5469 22.1289 88.8633 22.2344 88.0977 22.2344C87.293 22.2344 86.5898 22.0859 85.9883 21.7891C85.3945 21.4844 84.9336 21.0703 84.6055 20.5469C84.2773 20.0156 84.1133 19.4102 84.1133 18.7305C84.1133 18.1445 84.2461 17.6094 84.5117 17.125C84.7773 16.6406 85.1602 16.2266 85.6602 15.8828C86.168 15.5312 86.7812 15.2656 87.5 15.0859C88.2266 14.8984 89.043 14.8047 89.9492 14.8047H93.1133ZM99.0894 11.7578V26.875H98.1519V9.32031H99.0542L99.0894 11.7578ZM108.066 15.5312V15.7773C108.066 16.7383 107.957 17.6133 107.738 18.4023C107.527 19.1914 107.214 19.8711 106.8 20.4414C106.394 21.0117 105.894 21.4531 105.3 21.7656C104.707 22.0781 104.031 22.2344 103.273 22.2344C102.546 22.2344 101.894 22.1289 101.316 21.918C100.738 21.6992 100.238 21.3945 99.8159 21.0039C99.3941 20.6133 99.0542 20.168 98.7964 19.668C98.5386 19.1602 98.3589 18.6172 98.2573 18.0391V13.6328C98.3902 12.9688 98.5894 12.3633 98.855 11.8164C99.1284 11.2617 99.4683 10.7812 99.8745 10.375C100.289 9.96094 100.777 9.64453 101.339 9.42578C101.902 9.19922 102.539 9.08594 103.25 9.08594C104.007 9.08594 104.683 9.23828 105.277 9.54297C105.878 9.83984 106.386 10.2695 106.8 10.832C107.214 11.3867 107.527 12.0625 107.738 12.8594C107.957 13.6484 108.066 14.5391 108.066 15.5312ZM107.117 15.7773V15.5312C107.117 14.7344 107.035 13.9961 106.871 13.3164C106.714 12.6367 106.472 12.0469 106.144 11.5469C105.816 11.0469 105.402 10.6562 104.902 10.375C104.402 10.0938 103.812 9.95312 103.132 9.95312C102.39 9.95312 101.761 10.0781 101.246 10.3281C100.73 10.5703 100.304 10.8867 99.9683 11.2773C99.6402 11.668 99.3862 12.0898 99.2066 12.543C99.0269 12.9883 98.8941 13.4102 98.8081 13.8086V17.9688C98.9487 18.5938 99.1987 19.1641 99.5581 19.6797C99.9175 20.1953 100.394 20.6094 100.988 20.9219C101.589 21.2266 102.312 21.3789 103.156 21.3789C103.835 21.3789 104.421 21.2383 104.914 20.957C105.406 20.6758 105.816 20.2852 106.144 19.7852C106.472 19.2852 106.714 18.6953 106.871 18.0156C107.035 17.3281 107.117 16.582 107.117 15.7773ZM112.788 11.7578V26.875H111.851V9.32031H112.753L112.788 11.7578ZM121.765 15.5312V15.7773C121.765 16.7383 121.655 17.6133 121.437 18.4023C121.226 19.1914 120.913 19.8711 120.499 20.4414C120.093 21.0117 119.593 21.4531 118.999 21.7656C118.405 22.0781 117.73 22.2344 116.972 22.2344C116.245 22.2344 115.593 22.1289 115.015 21.918C114.437 21.6992 113.937 21.3945 113.515 21.0039C113.093 20.6133 112.753 20.168 112.495 19.668C112.237 19.1602 112.058 18.6172 111.956 18.0391V13.6328C112.089 12.9688 112.288 12.3633 112.554 11.8164C112.827 11.2617 113.167 10.7812 113.573 10.375C113.987 9.96094 114.476 9.64453 115.038 9.42578C115.601 9.19922 116.237 9.08594 116.948 9.08594C117.706 9.08594 118.382 9.23828 118.976 9.54297C119.577 9.83984 120.085 10.2695 120.499 10.832C120.913 11.3867 121.226 12.0625 121.437 12.8594C121.655 13.6484 121.765 14.5391 121.765 15.5312ZM120.815 15.7773V15.5312C120.815 14.7344 120.733 13.9961 120.569 13.3164C120.413 12.6367 120.171 12.0469 119.843 11.5469C119.515 11.0469 119.101 10.6562 118.601 10.375C118.101 10.0938 117.511 9.95312 116.831 9.95312C116.089 9.95312 115.46 10.0781 114.944 10.3281C114.429 10.5703 114.003 10.8867 113.667 11.2773C113.339 11.668 113.085 12.0898 112.905 12.543C112.726 12.9883 112.593 13.4102 112.507 13.8086V17.9688C112.647 18.5938 112.897 19.1641 113.257 19.6797C113.616 20.1953 114.093 20.6094 114.687 20.9219C115.288 21.2266 116.011 21.3789 116.855 21.3789C117.534 21.3789 118.12 21.2383 118.612 20.957C119.105 20.6758 119.515 20.2852 119.843 19.7852C120.171 19.2852 120.413 18.6953 120.569 18.0156C120.733 17.3281 120.815 16.582 120.815 15.7773Z" fill="#393939"/>
</svg>
